<svg xmlns="http://www.w3.org/2000/svg" width="77" height="65" viewBox="0 0 77 65" fill="none">
  <path d="M26.6667 29.55H50.3333H26.6667ZM26.6667 41.35H50.3333H26.6667ZM74 56.1V17.75C74 14.4902 71.3612 11.85 68.0922 11.85H41.4583C35.5417 11.85 35.5417 3 26.6667 3H8.91667C7.34747 3 5.84254 3.62161 4.73295 4.72807C3.62336 5.83453 3 7.33522 3 8.9V56.1C3 57.6648 3.62336 59.1655 4.73295 60.2719C5.84254 61.3784 7.34747 62 8.91667 62H68.0833C69.6525 62 71.1575 61.3784 72.2671 60.2719C73.3766 59.1655 74 57.6648 74 56.1Z" fill="#562ECF" fill-opacity="0.8"/>
  <path d="M26.6667 29.55H50.3333M26.6667 41.35H50.3333M74 56.1V17.75C74 14.4903 71.3612 11.85 68.0922 11.85H41.4583C35.5417 11.85 35.5417 3 26.6667 3H8.91667C7.34747 3 5.84254 3.62161 4.73295 4.72807C3.62336 5.83453 3 7.33522 3 8.9V56.1C3 57.6648 3.62336 59.1655 4.73295 60.2719C5.84254 61.3784 7.34747 62 8.91667 62H68.0833C69.6525 62 71.1575 61.3784 72.2671 60.2719C73.3766 59.1655 74 57.6648 74 56.1Z" stroke="white" stroke-width="5" stroke-linecap="round"/>
</svg>